<?xml version="1.0" encoding="utf-8" standalone="no"?>
<!DOCTYPE svg PUBLIC "-//W3C//DTD SVG 1.1//EN"
  "http://www.w3.org/Graphics/SVG/1.1/DTD/svg11.dtd">
<svg xmlns:xlink="http://www.w3.org/1999/xlink" width="720pt" height="504pt" viewBox="0 0 720 504" xmlns="http://www.w3.org/2000/svg" version="1.1">
 <metadata>
  <rdf:RDF xmlns:dc="http://purl.org/dc/elements/1.1/" xmlns:cc="http://creativecommons.org/ns#" xmlns:rdf="http://www.w3.org/1999/02/22-rdf-syntax-ns#">
   <cc:Work>
    <dc:type rdf:resource="http://purl.org/dc/dcmitype/StillImage"/>
    <dc:date>2022-09-06T21:41:04.636572</dc:date>
    <dc:format>image/svg+xml</dc:format>
    <dc:creator>
     <cc:Agent>
      <dc:title>Matplotlib v3.5.1, https://matplotlib.org/</dc:title>
     </cc:Agent>
    </dc:creator>
   </cc:Work>
  </rdf:RDF>
 </metadata>
 <defs>
  <style type="text/css">*{stroke-linejoin: round; stroke-linecap: butt}</style>
 </defs>
 <g id="figure_1">
  <g id="patch_1">
   <path d="M 0 504
L 720 504
L 720 0
L 0 0
L 0 504
z
" style="fill: none"/>
  </g>
  <g id="axes_1">
   <g id="patch_2">
    <path d="M 83.94 462.56
L 700.56 462.56
L 700.56 111.04
L 83.94 111.04
z
" style="fill: #ffffff"/>
   </g>
   <g id="patch_3">
    <path d="M 193.637174 462.56
L 241.526638 462.56
L 241.526638 426.357048
L 193.637174 426.357048
z
" clip-path="url(#pc7be774b21)" style="fill: #1f77b4; opacity: 0.2"/>
   </g>
   <g id="patch_4">
    <path d="M 241.526638 462.56
L 289.416103 462.56
L 289.416103 390.154097
L 241.526638 390.154097
z
" clip-path="url(#pc7be774b21)" style="fill: #1f77b4; opacity: 0.2"/>
   </g>
   <g id="patch_5">
    <path d="M 289.416103 462.56
L 337.305567 462.56
L 337.305567 317.748194
L 289.416103 317.748194
z
" clip-path="url(#pc7be774b21)" style="fill: #1f77b4; opacity: 0.2"/>
   </g>
   <g id="patch_6">
    <path d="M 337.305567 462.56
L 385.195032 462.56
L 385.195032 281.545242
L 337.305567 281.545242
z
" clip-path="url(#pc7be774b21)" style="fill: #1f77b4; opacity: 0.2"/>
   </g>
   <g id="patch_7">
    <path d="M 385.195032 462.56
L 433.084496 462.56
L 433.084496 172.936387
L 385.195032 172.936387
z
" clip-path="url(#pc7be774b21)" style="fill: #1f77b4; opacity: 0.2"/>
   </g>
   <g id="patch_8">
    <path d="M 433.084496 462.56
L 480.973961 462.56
L 480.973961 353.951145
L 433.084496 353.951145
z
" clip-path="url(#pc7be774b21)" style="fill: #1f77b4; opacity: 0.2"/>
   </g>
   <g id="patch_9">
    <path d="M 480.973961 462.56
L 528.863425 462.56
L 528.863425 245.34229
L 480.973961 245.34229
z
" clip-path="url(#pc7be774b21)" style="fill: #1f77b4; opacity: 0.2"/>
   </g>
   <g id="patch_10">
    <path d="M 528.863425 462.56
L 576.752889 462.56
L 576.752889 281.545242
L 528.863425 281.545242
z
" clip-path="url(#pc7be774b21)" style="fill: #1f77b4; opacity: 0.2"/>
   </g>
   <g id="patch_11">
    <path d="M 576.752889 462.56
L 624.642354 462.56
L 624.642354 426.357048
L 576.752889 426.357048
z
" clip-path="url(#pc7be774b21)" style="fill: #1f77b4; opacity: 0.2"/>
   </g>
   <g id="patch_12">
    <path d="M 624.642354 462.56
L 672.531818 462.56
L 672.531818 426.357048
L 624.642354 426.357048
z
" clip-path="url(#pc7be774b21)" style="fill: #1f77b4; opacity: 0.2"/>
   </g>
   <g id="patch_13">
    <path d="M 111.968182 462.56
L 162.885274 462.56
L 162.885274 380.839389
L 111.968182 380.839389
z
" clip-path="url(#pc7be774b21)" style="fill: #ff7f0e; opacity: 0.2"/>
   </g>
   <g id="patch_14">
    <path d="M 162.885274 462.56
L 213.802367 462.56
L 213.802367 408.079593
L 162.885274 408.079593
z
" clip-path="url(#pc7be774b21)" style="fill: #ff7f0e; opacity: 0.2"/>
   </g>
   <g id="patch_15">
    <path d="M 213.802367 462.56
L 264.71946 462.56
L 264.71946 380.839389
L 213.802367 380.839389
z
" clip-path="url(#pc7be774b21)" style="fill: #ff7f0e; opacity: 0.2"/>
   </g>
   <g id="patch_16">
    <path d="M 264.71946 462.56
L 315.636553 462.56
L 315.636553 190.157964
L 264.71946 190.157964
z
" clip-path="url(#pc7be774b21)" style="fill: #ff7f0e; opacity: 0.2"/>
   </g>
   <g id="patch_17">
    <path d="M 315.636553 462.56
L 366.553645 462.56
L 366.553645 299.118778
L 315.636553 299.118778
z
" clip-path="url(#pc7be774b21)" style="fill: #ff7f0e; opacity: 0.2"/>
   </g>
   <g id="patch_18">
    <path d="M 366.553645 462.56
L 417.470738 462.56
L 417.470738 353.599186
L 366.553645 353.599186
z
" clip-path="url(#pc7be774b21)" style="fill: #ff7f0e; opacity: 0.2"/>
   </g>
   <g id="patch_19">
    <path d="M 417.470738 462.56
L 468.387831 462.56
L 468.387831 271.878575
L 417.470738 271.878575
z
" clip-path="url(#pc7be774b21)" style="fill: #ff7f0e; opacity: 0.2"/>
   </g>
   <g id="patch_20">
    <path d="M 468.387831 462.56
L 519.304923 462.56
L 519.304923 326.358982
L 468.387831 326.358982
z
" clip-path="url(#pc7be774b21)" style="fill: #ff7f0e; opacity: 0.2"/>
   </g>
   <g id="patch_21">
    <path d="M 519.304923 462.56
L 570.222016 462.56
L 570.222016 380.839389
L 519.304923 380.839389
z
" clip-path="url(#pc7be774b21)" style="fill: #ff7f0e; opacity: 0.2"/>
   </g>
   <g id="patch_22">
    <path d="M 570.222016 462.56
L 621.139109 462.56
L 621.139109 408.079593
L 570.222016 408.079593
z
" clip-path="url(#pc7be774b21)" style="fill: #ff7f0e; opacity: 0.2"/>
   </g>
   <g id="patch_23">
    <path d="M 224.986798 462.56
L 256.059174 462.56
L 256.059174 406.763175
L 224.986798 406.763175
z
" clip-path="url(#pc7be774b21)" style="fill: #2ca02c; opacity: 0.2"/>
   </g>
   <g id="patch_24">
    <path d="M 256.059174 462.56
L 287.131551 462.56
L 287.131551 462.56
L 256.059174 462.56
z
" clip-path="url(#pc7be774b21)" style="fill: #2ca02c; opacity: 0.2"/>
   </g>
   <g id="patch_25">
    <path d="M 287.131551 462.56
L 318.203927 462.56
L 318.203927 127.779048
L 287.131551 127.779048
z
" clip-path="url(#pc7be774b21)" style="fill: #2ca02c; opacity: 0.2"/>
   </g>
   <g id="patch_26">
    <path d="M 318.203927 462.56
L 349.276304 462.56
L 349.276304 239.372698
L 318.203927 239.372698
z
" clip-path="url(#pc7be774b21)" style="fill: #2ca02c; opacity: 0.2"/>
   </g>
   <g id="patch_27">
    <path d="M 349.276304 462.56
L 380.34868 462.56
L 380.34868 183.575873
L 349.276304 183.575873
z
" clip-path="url(#pc7be774b21)" style="fill: #2ca02c; opacity: 0.2"/>
   </g>
   <g id="patch_28">
    <path d="M 380.34868 462.56
L 411.421056 462.56
L 411.421056 239.372698
L 380.34868 239.372698
z
" clip-path="url(#pc7be774b21)" style="fill: #2ca02c; opacity: 0.2"/>
   </g>
   <g id="patch_29">
    <path d="M 411.421056 462.56
L 442.493433 462.56
L 442.493433 239.372698
L 411.421056 239.372698
z
" clip-path="url(#pc7be774b21)" style="fill: #2ca02c; opacity: 0.2"/>
   </g>
   <g id="patch_30">
    <path d="M 442.493433 462.56
L 473.565809 462.56
L 473.565809 239.372698
L 442.493433 239.372698
z
" clip-path="url(#pc7be774b21)" style="fill: #2ca02c; opacity: 0.2"/>
   </g>
   <g id="patch_31">
    <path d="M 473.565809 462.56
L 504.638186 462.56
L 504.638186 183.575873
L 473.565809 183.575873
z
" clip-path="url(#pc7be774b21)" style="fill: #2ca02c; opacity: 0.2"/>
   </g>
   <g id="patch_32">
    <path d="M 504.638186 462.56
L 535.710562 462.56
L 535.710562 295.169524
L 504.638186 295.169524
z
" clip-path="url(#pc7be774b21)" style="fill: #2ca02c; opacity: 0.2"/>
   </g>
   <g id="matplotlib.axis_1">
    <g id="xtick_1">
     <g id="line2d_1">
      <defs>
       <path id="m8745c8c488" d="M 0 0
L 0 3.5
" style="stroke: #000000; stroke-width: 0.8"/>
      </defs>
      <g>
       <use xlink:href="#m8745c8c488" x="112.113338" y="462.56" style="stroke: #000000; stroke-width: 0.8"/>
      </g>
     </g>
     <g id="text_1">
      <!-- 0.00045 -->
      <g transform="translate(81.098494 480.957656)scale(0.15 -0.15)">
       <defs>
        <path id="DejaVuSans-30" d="M 2034 4250
Q 1547 4250 1301 3770
Q 1056 3291 1056 2328
Q 1056 1369 1301 889
Q 1547 409 2034 409
Q 2525 409 2770 889
Q 3016 1369 3016 2328
Q 3016 3291 2770 3770
Q 2525 4250 2034 4250
z
M 2034 4750
Q 2819 4750 3233 4129
Q 3647 3509 3647 2328
Q 3647 1150 3233 529
Q 2819 -91 2034 -91
Q 1250 -91 836 529
Q 422 1150 422 2328
Q 422 3509 836 4129
Q 1250 4750 2034 4750
z
" transform="scale(0.015625)"/>
        <path id="DejaVuSans-2e" d="M 684 794
L 1344 794
L 1344 0
L 684 0
L 684 794
z
" transform="scale(0.015625)"/>
        <path id="DejaVuSans-34" d="M 2419 4116
L 825 1625
L 2419 1625
L 2419 4116
z
M 2253 4666
L 3047 4666
L 3047 1625
L 3713 1625
L 3713 1100
L 3047 1100
L 3047 0
L 2419 0
L 2419 1100
L 313 1100
L 313 1709
L 2253 4666
z
" transform="scale(0.015625)"/>
        <path id="DejaVuSans-35" d="M 691 4666
L 3169 4666
L 3169 4134
L 1269 4134
L 1269 2991
Q 1406 3038 1543 3061
Q 1681 3084 1819 3084
Q 2600 3084 3056 2656
Q 3513 2228 3513 1497
Q 3513 744 3044 326
Q 2575 -91 1722 -91
Q 1428 -91 1123 -41
Q 819 9 494 109
L 494 744
Q 775 591 1075 516
Q 1375 441 1709 441
Q 2250 441 2565 725
Q 2881 1009 2881 1497
Q 2881 1984 2565 2268
Q 2250 2553 1709 2553
Q 1456 2553 1204 2497
Q 953 2441 691 2322
L 691 4666
z
" transform="scale(0.015625)"/>
       </defs>
       <use xlink:href="#DejaVuSans-30"/>
       <use xlink:href="#DejaVuSans-2e" x="63.623047"/>
       <use xlink:href="#DejaVuSans-30" x="95.410156"/>
       <use xlink:href="#DejaVuSans-30" x="159.033203"/>
       <use xlink:href="#DejaVuSans-30" x="222.65625"/>
       <use xlink:href="#DejaVuSans-34" x="286.279297"/>
       <use xlink:href="#DejaVuSans-35" x="349.902344"/>
      </g>
     </g>
    </g>
    <g id="xtick_2">
     <g id="line2d_2">
      <g>
       <use xlink:href="#m8745c8c488" x="203.515127" y="462.56" style="stroke: #000000; stroke-width: 0.8"/>
      </g>
     </g>
     <g id="text_2">
      <!-- 0.00050 -->
      <g transform="translate(172.500283 480.957656)scale(0.15 -0.15)">
       <use xlink:href="#DejaVuSans-30"/>
       <use xlink:href="#DejaVuSans-2e" x="63.623047"/>
       <use xlink:href="#DejaVuSans-30" x="95.410156"/>
       <use xlink:href="#DejaVuSans-30" x="159.033203"/>
       <use xlink:href="#DejaVuSans-30" x="222.65625"/>
       <use xlink:href="#DejaVuSans-35" x="286.279297"/>
       <use xlink:href="#DejaVuSans-30" x="349.902344"/>
      </g>
     </g>
    </g>
    <g id="xtick_3">
     <g id="line2d_3">
      <g>
       <use xlink:href="#m8745c8c488" x="294.916916" y="462.56" style="stroke: #000000; stroke-width: 0.8"/>
      </g>
     </g>
     <g id="text_3">
      <!-- 0.00055 -->
      <g transform="translate(263.902072 480.957656)scale(0.15 -0.15)">
       <use xlink:href="#DejaVuSans-30"/>
       <use xlink:href="#DejaVuSans-2e" x="63.623047"/>
       <use xlink:href="#DejaVuSans-30" x="95.410156"/>
       <use xlink:href="#DejaVuSans-30" x="159.033203"/>
       <use xlink:href="#DejaVuSans-30" x="222.65625"/>
       <use xlink:href="#DejaVuSans-35" x="286.279297"/>
       <use xlink:href="#DejaVuSans-35" x="349.902344"/>
      </g>
     </g>
    </g>
    <g id="xtick_4">
     <g id="line2d_4">
      <g>
       <use xlink:href="#m8745c8c488" x="386.318705" y="462.56" style="stroke: #000000; stroke-width: 0.8"/>
      </g>
     </g>
     <g id="text_4">
      <!-- 0.00060 -->
      <g transform="translate(355.303861 480.957656)scale(0.15 -0.15)">
       <defs>
        <path id="DejaVuSans-36" d="M 2113 2584
Q 1688 2584 1439 2293
Q 1191 2003 1191 1497
Q 1191 994 1439 701
Q 1688 409 2113 409
Q 2538 409 2786 701
Q 3034 994 3034 1497
Q 3034 2003 2786 2293
Q 2538 2584 2113 2584
z
M 3366 4563
L 3366 3988
Q 3128 4100 2886 4159
Q 2644 4219 2406 4219
Q 1781 4219 1451 3797
Q 1122 3375 1075 2522
Q 1259 2794 1537 2939
Q 1816 3084 2150 3084
Q 2853 3084 3261 2657
Q 3669 2231 3669 1497
Q 3669 778 3244 343
Q 2819 -91 2113 -91
Q 1303 -91 875 529
Q 447 1150 447 2328
Q 447 3434 972 4092
Q 1497 4750 2381 4750
Q 2619 4750 2861 4703
Q 3103 4656 3366 4563
z
" transform="scale(0.015625)"/>
       </defs>
       <use xlink:href="#DejaVuSans-30"/>
       <use xlink:href="#DejaVuSans-2e" x="63.623047"/>
       <use xlink:href="#DejaVuSans-30" x="95.410156"/>
       <use xlink:href="#DejaVuSans-30" x="159.033203"/>
       <use xlink:href="#DejaVuSans-30" x="222.65625"/>
       <use xlink:href="#DejaVuSans-36" x="286.279297"/>
       <use xlink:href="#DejaVuSans-30" x="349.902344"/>
      </g>
     </g>
    </g>
    <g id="xtick_5">
     <g id="line2d_5">
      <g>
       <use xlink:href="#m8745c8c488" x="477.720494" y="462.56" style="stroke: #000000; stroke-width: 0.8"/>
      </g>
     </g>
     <g id="text_5">
      <!-- 0.00065 -->
      <g transform="translate(446.70565 480.957656)scale(0.15 -0.15)">
       <use xlink:href="#DejaVuSans-30"/>
       <use xlink:href="#DejaVuSans-2e" x="63.623047"/>
       <use xlink:href="#DejaVuSans-30" x="95.410156"/>
       <use xlink:href="#DejaVuSans-30" x="159.033203"/>
       <use xlink:href="#DejaVuSans-30" x="222.65625"/>
       <use xlink:href="#DejaVuSans-36" x="286.279297"/>
       <use xlink:href="#DejaVuSans-35" x="349.902344"/>
      </g>
     </g>
    </g>
    <g id="xtick_6">
     <g id="line2d_6">
      <g>
       <use xlink:href="#m8745c8c488" x="569.122283" y="462.56" style="stroke: #000000; stroke-width: 0.8"/>
      </g>
     </g>
     <g id="text_6">
      <!-- 0.00070 -->
      <g transform="translate(538.107439 480.957656)scale(0.15 -0.15)">
       <defs>
        <path id="DejaVuSans-37" d="M 525 4666
L 3525 4666
L 3525 4397
L 1831 0
L 1172 0
L 2766 4134
L 525 4134
L 525 4666
z
" transform="scale(0.015625)"/>
       </defs>
       <use xlink:href="#DejaVuSans-30"/>
       <use xlink:href="#DejaVuSans-2e" x="63.623047"/>
       <use xlink:href="#DejaVuSans-30" x="95.410156"/>
       <use xlink:href="#DejaVuSans-30" x="159.033203"/>
       <use xlink:href="#DejaVuSans-30" x="222.65625"/>
       <use xlink:href="#DejaVuSans-37" x="286.279297"/>
       <use xlink:href="#DejaVuSans-30" x="349.902344"/>
      </g>
     </g>
    </g>
    <g id="xtick_7">
     <g id="line2d_7">
      <g>
       <use xlink:href="#m8745c8c488" x="660.524072" y="462.56" style="stroke: #000000; stroke-width: 0.8"/>
      </g>
     </g>
     <g id="text_7">
      <!-- 0.00075 -->
      <g transform="translate(629.509228 480.957656)scale(0.15 -0.15)">
       <use xlink:href="#DejaVuSans-30"/>
       <use xlink:href="#DejaVuSans-2e" x="63.623047"/>
       <use xlink:href="#DejaVuSans-30" x="95.410156"/>
       <use xlink:href="#DejaVuSans-30" x="159.033203"/>
       <use xlink:href="#DejaVuSans-30" x="222.65625"/>
       <use xlink:href="#DejaVuSans-37" x="286.279297"/>
       <use xlink:href="#DejaVuSans-35" x="349.902344"/>
      </g>
     </g>
    </g>
   </g>
   <g id="matplotlib.axis_2">
    <g id="ytick_1">
     <g id="line2d_8">
      <defs>
       <path id="me5b249cced" d="M 0 0
L -3.5 0
" style="stroke: #000000; stroke-width: 0.8"/>
      </defs>
      <g>
       <use xlink:href="#me5b249cced" x="83.94" y="462.56" style="stroke: #000000; stroke-width: 0.8"/>
      </g>
     </g>
     <g id="text_8">
      <!-- 0 -->
      <g transform="translate(65.4875 469.398594)scale(0.18 -0.18)">
       <use xlink:href="#DejaVuSans-30"/>
      </g>
     </g>
    </g>
    <g id="ytick_2">
     <g id="line2d_9">
      <g>
       <use xlink:href="#me5b249cced" x="83.94" y="394.273986" style="stroke: #000000; stroke-width: 0.8"/>
      </g>
     </g>
     <g id="text_9">
      <!-- 2000 -->
      <g transform="translate(31.13 401.11258)scale(0.18 -0.18)">
       <defs>
        <path id="DejaVuSans-32" d="M 1228 531
L 3431 531
L 3431 0
L 469 0
L 469 531
Q 828 903 1448 1529
Q 2069 2156 2228 2338
Q 2531 2678 2651 2914
Q 2772 3150 2772 3378
Q 2772 3750 2511 3984
Q 2250 4219 1831 4219
Q 1534 4219 1204 4116
Q 875 4013 500 3803
L 500 4441
Q 881 4594 1212 4672
Q 1544 4750 1819 4750
Q 2544 4750 2975 4387
Q 3406 4025 3406 3419
Q 3406 3131 3298 2873
Q 3191 2616 2906 2266
Q 2828 2175 2409 1742
Q 1991 1309 1228 531
z
" transform="scale(0.015625)"/>
       </defs>
       <use xlink:href="#DejaVuSans-32"/>
       <use xlink:href="#DejaVuSans-30" x="63.623047"/>
       <use xlink:href="#DejaVuSans-30" x="127.246094"/>
       <use xlink:href="#DejaVuSans-30" x="190.869141"/>
      </g>
     </g>
    </g>
    <g id="ytick_3">
     <g id="line2d_10">
      <g>
       <use xlink:href="#me5b249cced" x="83.94" y="325.987972" style="stroke: #000000; stroke-width: 0.8"/>
      </g>
     </g>
     <g id="text_10">
      <!-- 4000 -->
      <g transform="translate(31.13 332.826565)scale(0.18 -0.18)">
       <use xlink:href="#DejaVuSans-34"/>
       <use xlink:href="#DejaVuSans-30" x="63.623047"/>
       <use xlink:href="#DejaVuSans-30" x="127.246094"/>
       <use xlink:href="#DejaVuSans-30" x="190.869141"/>
      </g>
     </g>
    </g>
    <g id="ytick_4">
     <g id="line2d_11">
      <g>
       <use xlink:href="#me5b249cced" x="83.94" y="257.701957" style="stroke: #000000; stroke-width: 0.8"/>
      </g>
     </g>
     <g id="text_11">
      <!-- 6000 -->
      <g transform="translate(31.13 264.540551)scale(0.18 -0.18)">
       <use xlink:href="#DejaVuSans-36"/>
       <use xlink:href="#DejaVuSans-30" x="63.623047"/>
       <use xlink:href="#DejaVuSans-30" x="127.246094"/>
       <use xlink:href="#DejaVuSans-30" x="190.869141"/>
      </g>
     </g>
    </g>
    <g id="ytick_5">
     <g id="line2d_12">
      <g>
       <use xlink:href="#me5b249cced" x="83.94" y="189.415943" style="stroke: #000000; stroke-width: 0.8"/>
      </g>
     </g>
     <g id="text_12">
      <!-- 8000 -->
      <g transform="translate(31.13 196.254537)scale(0.18 -0.18)">
       <defs>
        <path id="DejaVuSans-38" d="M 2034 2216
Q 1584 2216 1326 1975
Q 1069 1734 1069 1313
Q 1069 891 1326 650
Q 1584 409 2034 409
Q 2484 409 2743 651
Q 3003 894 3003 1313
Q 3003 1734 2745 1975
Q 2488 2216 2034 2216
z
M 1403 2484
Q 997 2584 770 2862
Q 544 3141 544 3541
Q 544 4100 942 4425
Q 1341 4750 2034 4750
Q 2731 4750 3128 4425
Q 3525 4100 3525 3541
Q 3525 3141 3298 2862
Q 3072 2584 2669 2484
Q 3125 2378 3379 2068
Q 3634 1759 3634 1313
Q 3634 634 3220 271
Q 2806 -91 2034 -91
Q 1263 -91 848 271
Q 434 634 434 1313
Q 434 1759 690 2068
Q 947 2378 1403 2484
z
M 1172 3481
Q 1172 3119 1398 2916
Q 1625 2713 2034 2713
Q 2441 2713 2670 2916
Q 2900 3119 2900 3481
Q 2900 3844 2670 4047
Q 2441 4250 2034 4250
Q 1625 4250 1398 4047
Q 1172 3844 1172 3481
z
" transform="scale(0.015625)"/>
       </defs>
       <use xlink:href="#DejaVuSans-38"/>
       <use xlink:href="#DejaVuSans-30" x="63.623047"/>
       <use xlink:href="#DejaVuSans-30" x="127.246094"/>
       <use xlink:href="#DejaVuSans-30" x="190.869141"/>
      </g>
     </g>
    </g>
    <g id="ytick_6">
     <g id="line2d_13">
      <g>
       <use xlink:href="#me5b249cced" x="83.94" y="121.129929" style="stroke: #000000; stroke-width: 0.8"/>
      </g>
     </g>
     <g id="text_13">
      <!-- 10000 -->
      <g transform="translate(19.6775 127.968523)scale(0.18 -0.18)">
       <defs>
        <path id="DejaVuSans-31" d="M 794 531
L 1825 531
L 1825 4091
L 703 3866
L 703 4441
L 1819 4666
L 2450 4666
L 2450 531
L 3481 531
L 3481 0
L 794 0
L 794 531
z
" transform="scale(0.015625)"/>
       </defs>
       <use xlink:href="#DejaVuSans-31"/>
       <use xlink:href="#DejaVuSans-30" x="63.623047"/>
       <use xlink:href="#DejaVuSans-30" x="127.246094"/>
       <use xlink:href="#DejaVuSans-30" x="190.869141"/>
       <use xlink:href="#DejaVuSans-30" x="254.492188"/>
      </g>
     </g>
    </g>
   </g>
   <g id="line2d_14">
    <path d="M 111.968182 458.593924
L 117.630441 457.823024
L 123.2927 456.959397
L 128.954959 456.00246
L 134.617218 454.952695
L 140.279477 453.811142
L 145.941736 452.578698
L 151.603994 451.255223
L 157.266253 449.838544
L 162.928512 448.323429
L 168.590771 446.700646
L 174.25303 444.956237
L 179.915289 443.071132
L 185.577548 441.02121
L 191.239807 438.777905
L 196.902066 436.309368
L 202.564325 433.582195
L 208.226584 430.563611
L 213.888843 427.223976
L 219.551102 423.539405
L 225.213361 419.494266
L 230.87562 415.083295
L 236.537879 410.313083
L 242.200138 405.202743
L 247.862397 399.783609
L 253.524656 394.097931
L 259.186915 388.196618
L 264.849174 382.136179
L 270.511433 375.975125
L 276.173691 369.77013
L 281.83595 363.572315
L 287.498209 357.424005
L 293.160468 351.356283
L 298.822727 345.38759
L 304.484986 339.523522
L 310.147245 333.757869
L 315.809504 328.074823
L 321.471763 322.452162
L 327.134022 316.865147
L 332.796281 311.290777
L 338.45854 305.712044
L 344.120799 300.121801
L 349.783058 294.525909
L 355.445317 288.945394
L 361.107576 283.4174
L 366.769835 277.994851
L 372.432094 272.744827
L 378.094353 267.745758
L 383.756612 263.083635
L 389.418871 258.847513
L 395.081129 255.124645
L 400.743388 251.995587
L 406.405647 249.529644
L 412.067906 247.780982
L 417.730165 246.785658
L 423.392424 246.559771
L 429.054683 247.098816
L 434.716942 248.378248
L 440.379201 250.355138
L 446.04146 252.970764
L 451.703719 256.153893
L 457.365978 259.824489
L 463.028237 263.897598
L 468.690496 268.287157
L 474.352755 272.909545
L 480.015014 277.68672
L 485.677273 282.548861
L 491.339532 287.436465
L 497.001791 292.301879
L 502.66405 297.110285
L 508.326309 301.840113
L 513.988567 306.482923
L 519.650826 311.042709
L 525.313085 315.53465
L 530.975344 319.983301
L 536.637603 324.42026
L 542.299862 328.881388
L 547.962121 333.403707
L 553.62438 338.02214
L 559.286639 342.766327
L 564.948898 347.657737
L 570.611157 352.707328
L 576.273416 357.913964
L 581.935675 363.263752
L 587.597934 368.730353
L 593.260193 374.276294
L 598.922452 379.85514
L 604.584711 385.414349
L 610.24697 390.89857
L 615.909229 396.253059
L 621.571488 401.426951
L 627.233747 406.376091
L 632.896006 411.065215
L 638.558264 415.469337
L 644.220523 419.574272
L 649.882782 423.376326
L 655.545041 426.881249
L 661.2073 430.102613
L 666.869559 433.059802
L 672.531818 435.775855
" clip-path="url(#pc7be774b21)" style="fill: none; stroke: #1f77b4; stroke-width: 1.5; stroke-linecap: square"/>
   </g>
   <g id="line2d_15">
    <path d="M 111.968182 426.317202
L 117.630441 423.908018
L 123.2927 421.451684
L 128.954959 418.932967
L 134.617218 416.331987
L 140.279477 413.62481
L 145.941736 410.784303
L 151.603994 407.781239
L 157.266253 404.585595
L 162.928512 401.168012
L 168.590771 397.501346
L 174.25303 393.562252
L 179.915289 389.332741
L 185.577548 384.801638
L 191.239807 379.965885
L 196.902066 374.831622
L 202.564325 369.41499
L 208.226584 363.742608
L 213.888843 357.851667
L 219.551102 351.78962
L 225.213361 345.613432
L 230.87562 339.388392
L 236.537879 333.186501
L 242.200138 327.08446
L 247.862397 321.16133
L 253.524656 315.495946
L 259.186915 310.164181
L 264.849174 305.236194
L 270.511433 300.773801
L 276.173691 296.828091
L 281.83595 293.437448
L 287.498209 290.626069
L 293.160468 288.403103
L 298.822727 286.762445
L 304.484986 285.683233
L 310.147245 285.131015
L 315.809504 285.059533
L 321.471763 285.413035
L 327.134022 286.128979
L 332.796281 287.140984
L 338.45854 288.381868
L 344.120799 289.786609
L 349.783058 291.295066
L 355.445317 292.854347
L 361.107576 294.420679
L 366.769835 295.960747
L 372.432094 297.452415
L 378.094353 298.884861
L 383.756612 300.258131
L 389.418871 301.582184
L 395.081129 302.875501
L 400.743388 304.163379
L 406.405647 305.475998
L 412.067906 306.846407
L 417.730165 308.308518
L 423.392424 309.895225
L 429.054683 311.63673
L 434.716942 313.559145
L 440.379201 315.683411
L 446.04146 318.024563
L 451.703719 320.591333
L 457.365978 323.386079
L 463.028237 326.405
L 468.690496 329.638598
L 474.352755 333.072323
L 480.015014 336.687357
L 485.677273 340.461482
L 491.339532 344.369983
L 497.001791 348.386545
L 502.66405 352.484115
L 508.326309 356.635711
L 513.988567 360.815148
L 519.650826 364.997682
L 525.313085 369.16056
L 530.975344 373.283464
L 536.637603 377.348862
L 542.299862 381.342238
L 547.962121 385.25221
L 553.62438 389.070538
L 559.286639 392.791999
L 564.948898 396.414158
L 570.611157 399.937018
L 576.273416 403.36258
L 581.935675 406.694328
L 587.597934 409.936659
L 593.260193 413.094297
L 598.922452 416.171724
L 604.584711 419.172652
L 610.24697 422.099592
L 615.909229 424.953517
L 621.571488 427.733665
L 627.233747 430.437475
L 632.896006 433.060673
L 638.558264 435.59748
L 644.220523 438.040936
L 649.882782 440.383314
L 655.545041 442.616585
L 661.2073 444.7329
L 666.869559 446.725069
L 672.531818 448.58698
" clip-path="url(#pc7be774b21)" style="fill: none; stroke: #ff7f0e; stroke-width: 1.5; stroke-linecap: square"/>
   </g>
   <g id="line2d_16">
    <path d="M 111.968182 462.331471
L 117.630441 462.209216
L 123.2927 462.033083
L 128.954959 461.785371
L 134.617218 461.445305
L 140.279477 460.989608
L 145.941736 460.393523
L 151.603994 459.632266
L 157.266253 458.682782
L 162.928512 457.525524
L 168.590771 456.145873
L 174.25303 454.534725
L 179.915289 452.687743
L 185.577548 450.602908
L 191.239807 448.276217
L 196.902066 445.695728
L 202.564325 442.834605
L 208.226584 439.644228
L 213.888843 436.04879
L 219.551102 431.942935
L 225.213361 427.193848
L 230.87562 421.648731
L 236.537879 415.147868
L 242.200138 407.542485
L 247.862397 398.715636
L 253.524656 388.603501
L 259.186915 377.213977
L 264.849174 364.63944
L 270.511433 351.061103
L 276.173691 336.743429
L 281.83595 322.01849
L 287.498209 307.261657
L 293.160468 292.861417
L 298.822727 279.18708
L 304.484986 266.558518
L 310.147245 255.22184
L 315.809504 245.333958
L 321.471763 236.957671
L 327.134022 230.067315
L 332.796281 224.563475
L 338.45854 220.294081
L 344.120799 217.078494
L 349.783058 214.731079
L 355.445317 213.08124
L 361.107576 211.987769
L 366.769835 211.346512
L 372.432094 211.09151
L 378.094353 211.19071
L 383.756612 211.637952
L 389.418871 212.443135
L 395.081129 213.622292
L 400.743388 215.1889
L 406.405647 217.147227
L 412.067906 219.488063
L 417.730165 222.186892
L 423.392424 225.204428
L 429.054683 228.48948
L 434.716942 231.984085
L 440.379201 235.630802
L 446.04146 239.381792
L 451.703719 243.208848
L 457.365978 247.113084
L 463.028237 251.132527
L 468.690496 255.34578
L 474.352755 259.870161
L 480.015014 264.853486
L 485.677273 270.459697
L 491.339532 276.849728
L 497.001791 284.160069
L 502.66405 292.482087
L 508.326309 301.845259
L 513.988567 312.206956
L 519.650826 323.450344
L 525.313085 335.390756
L 530.975344 347.789506
L 536.637603 360.373148
L 542.299862 372.855484
L 547.962121 384.959537
L 553.62438 396.436972
L 559.286639 407.083105
L 564.948898 416.74645
L 570.611157 425.332565
L 576.273416 432.802665
L 581.935675 439.168015
L 587.597934 444.481335
L 593.260193 448.826599
L 598.922452 452.308442
L 604.584711 455.04221
L 610.24697 457.14537
L 615.909229 458.730723
L 621.571488 459.901555
L 627.233747 460.74867
L 632.896006 461.349051
L 638.558264 461.765825
L 644.220523 462.04917
L 649.882782 462.237804
L 655.545041 462.360765
L 661.2073 462.439237
L 666.869559 462.488261
L 672.531818 462.51824
" clip-path="url(#pc7be774b21)" style="fill: none; stroke: #2ca02c; stroke-width: 1.5; stroke-linecap: square"/>
   </g>
   <g id="patch_33">
    <path d="M 83.94 462.56
L 83.94 111.04
" style="fill: none; stroke: #000000; stroke-width: 0.8; stroke-linejoin: miter; stroke-linecap: square"/>
   </g>
   <g id="patch_34">
    <path d="M 700.56 462.56
L 700.56 111.04
" style="fill: none; stroke: #000000; stroke-width: 0.8; stroke-linejoin: miter; stroke-linecap: square"/>
   </g>
   <g id="patch_35">
    <path d="M 83.94 462.56
L 700.56 462.56
" style="fill: none; stroke: #000000; stroke-width: 0.8; stroke-linejoin: miter; stroke-linecap: square"/>
   </g>
   <g id="patch_36">
    <path d="M 83.94 111.04
L 700.56 111.04
" style="fill: none; stroke: #000000; stroke-width: 0.8; stroke-linejoin: miter; stroke-linecap: square"/>
   </g>
   <g id="text_14">
    <!-- Distances to -->
    <g transform="translate(326.990859 34.493781)scale(0.21 -0.21)">
     <defs>
      <path id="DejaVuSans-44" d="M 1259 4147
L 1259 519
L 2022 519
Q 2988 519 3436 956
Q 3884 1394 3884 2338
Q 3884 3275 3436 3711
Q 2988 4147 2022 4147
L 1259 4147
z
M 628 4666
L 1925 4666
Q 3281 4666 3915 4102
Q 4550 3538 4550 2338
Q 4550 1131 3912 565
Q 3275 0 1925 0
L 628 0
L 628 4666
z
" transform="scale(0.015625)"/>
      <path id="DejaVuSans-69" d="M 603 3500
L 1178 3500
L 1178 0
L 603 0
L 603 3500
z
M 603 4863
L 1178 4863
L 1178 4134
L 603 4134
L 603 4863
z
" transform="scale(0.015625)"/>
      <path id="DejaVuSans-73" d="M 2834 3397
L 2834 2853
Q 2591 2978 2328 3040
Q 2066 3103 1784 3103
Q 1356 3103 1142 2972
Q 928 2841 928 2578
Q 928 2378 1081 2264
Q 1234 2150 1697 2047
L 1894 2003
Q 2506 1872 2764 1633
Q 3022 1394 3022 966
Q 3022 478 2636 193
Q 2250 -91 1575 -91
Q 1294 -91 989 -36
Q 684 19 347 128
L 347 722
Q 666 556 975 473
Q 1284 391 1588 391
Q 1994 391 2212 530
Q 2431 669 2431 922
Q 2431 1156 2273 1281
Q 2116 1406 1581 1522
L 1381 1569
Q 847 1681 609 1914
Q 372 2147 372 2553
Q 372 3047 722 3315
Q 1072 3584 1716 3584
Q 2034 3584 2315 3537
Q 2597 3491 2834 3397
z
" transform="scale(0.015625)"/>
      <path id="DejaVuSans-74" d="M 1172 4494
L 1172 3500
L 2356 3500
L 2356 3053
L 1172 3053
L 1172 1153
Q 1172 725 1289 603
Q 1406 481 1766 481
L 2356 481
L 2356 0
L 1766 0
Q 1100 0 847 248
Q 594 497 594 1153
L 594 3053
L 172 3053
L 172 3500
L 594 3500
L 594 4494
L 1172 4494
z
" transform="scale(0.015625)"/>
      <path id="DejaVuSans-61" d="M 2194 1759
Q 1497 1759 1228 1600
Q 959 1441 959 1056
Q 959 750 1161 570
Q 1363 391 1709 391
Q 2188 391 2477 730
Q 2766 1069 2766 1631
L 2766 1759
L 2194 1759
z
M 3341 1997
L 3341 0
L 2766 0
L 2766 531
Q 2569 213 2275 61
Q 1981 -91 1556 -91
Q 1019 -91 701 211
Q 384 513 384 1019
Q 384 1609 779 1909
Q 1175 2209 1959 2209
L 2766 2209
L 2766 2266
Q 2766 2663 2505 2880
Q 2244 3097 1772 3097
Q 1472 3097 1187 3025
Q 903 2953 641 2809
L 641 3341
Q 956 3463 1253 3523
Q 1550 3584 1831 3584
Q 2591 3584 2966 3190
Q 3341 2797 3341 1997
z
" transform="scale(0.015625)"/>
      <path id="DejaVuSans-6e" d="M 3513 2113
L 3513 0
L 2938 0
L 2938 2094
Q 2938 2591 2744 2837
Q 2550 3084 2163 3084
Q 1697 3084 1428 2787
Q 1159 2491 1159 1978
L 1159 0
L 581 0
L 581 3500
L 1159 3500
L 1159 2956
Q 1366 3272 1645 3428
Q 1925 3584 2291 3584
Q 2894 3584 3203 3211
Q 3513 2838 3513 2113
z
" transform="scale(0.015625)"/>
      <path id="DejaVuSans-63" d="M 3122 3366
L 3122 2828
Q 2878 2963 2633 3030
Q 2388 3097 2138 3097
Q 1578 3097 1268 2742
Q 959 2388 959 1747
Q 959 1106 1268 751
Q 1578 397 2138 397
Q 2388 397 2633 464
Q 2878 531 3122 666
L 3122 134
Q 2881 22 2623 -34
Q 2366 -91 2075 -91
Q 1284 -91 818 406
Q 353 903 353 1747
Q 353 2603 823 3093
Q 1294 3584 2113 3584
Q 2378 3584 2631 3529
Q 2884 3475 3122 3366
z
" transform="scale(0.015625)"/>
      <path id="DejaVuSans-65" d="M 3597 1894
L 3597 1613
L 953 1613
Q 991 1019 1311 708
Q 1631 397 2203 397
Q 2534 397 2845 478
Q 3156 559 3463 722
L 3463 178
Q 3153 47 2828 -22
Q 2503 -91 2169 -91
Q 1331 -91 842 396
Q 353 884 353 1716
Q 353 2575 817 3079
Q 1281 3584 2069 3584
Q 2775 3584 3186 3129
Q 3597 2675 3597 1894
z
M 3022 2063
Q 3016 2534 2758 2815
Q 2500 3097 2075 3097
Q 1594 3097 1305 2825
Q 1016 2553 972 2059
L 3022 2063
z
" transform="scale(0.015625)"/>
      <path id="DejaVuSans-20" transform="scale(0.015625)"/>
      <path id="DejaVuSans-6f" d="M 1959 3097
Q 1497 3097 1228 2736
Q 959 2375 959 1747
Q 959 1119 1226 758
Q 1494 397 1959 397
Q 2419 397 2687 759
Q 2956 1122 2956 1747
Q 2956 2369 2687 2733
Q 2419 3097 1959 3097
z
M 1959 3584
Q 2709 3584 3137 3096
Q 3566 2609 3566 1747
Q 3566 888 3137 398
Q 2709 -91 1959 -91
Q 1206 -91 779 398
Q 353 888 353 1747
Q 353 2609 779 3096
Q 1206 3584 1959 3584
z
" transform="scale(0.015625)"/>
     </defs>
     <use xlink:href="#DejaVuSans-44"/>
     <use xlink:href="#DejaVuSans-69" x="77.001953"/>
     <use xlink:href="#DejaVuSans-73" x="104.785156"/>
     <use xlink:href="#DejaVuSans-74" x="156.884766"/>
     <use xlink:href="#DejaVuSans-61" x="196.09375"/>
     <use xlink:href="#DejaVuSans-6e" x="257.373047"/>
     <use xlink:href="#DejaVuSans-63" x="320.751953"/>
     <use xlink:href="#DejaVuSans-65" x="375.732422"/>
     <use xlink:href="#DejaVuSans-73" x="437.255859"/>
     <use xlink:href="#DejaVuSans-20" x="489.355469"/>
     <use xlink:href="#DejaVuSans-74" x="521.142578"/>
     <use xlink:href="#DejaVuSans-6f" x="560.351562"/>
    </g>
    <!--  Linear mean -->
    <g transform="translate(323.164922 58.009187)scale(0.21 -0.21)">
     <defs>
      <path id="DejaVuSans-4c" d="M 628 4666
L 1259 4666
L 1259 531
L 3531 531
L 3531 0
L 628 0
L 628 4666
z
" transform="scale(0.015625)"/>
      <path id="DejaVuSans-72" d="M 2631 2963
Q 2534 3019 2420 3045
Q 2306 3072 2169 3072
Q 1681 3072 1420 2755
Q 1159 2438 1159 1844
L 1159 0
L 581 0
L 581 3500
L 1159 3500
L 1159 2956
Q 1341 3275 1631 3429
Q 1922 3584 2338 3584
Q 2397 3584 2469 3576
Q 2541 3569 2628 3553
L 2631 2963
z
" transform="scale(0.015625)"/>
      <path id="DejaVuSans-6d" d="M 3328 2828
Q 3544 3216 3844 3400
Q 4144 3584 4550 3584
Q 5097 3584 5394 3201
Q 5691 2819 5691 2113
L 5691 0
L 5113 0
L 5113 2094
Q 5113 2597 4934 2840
Q 4756 3084 4391 3084
Q 3944 3084 3684 2787
Q 3425 2491 3425 1978
L 3425 0
L 2847 0
L 2847 2094
Q 2847 2600 2669 2842
Q 2491 3084 2119 3084
Q 1678 3084 1418 2786
Q 1159 2488 1159 1978
L 1159 0
L 581 0
L 581 3500
L 1159 3500
L 1159 2956
Q 1356 3278 1631 3431
Q 1906 3584 2284 3584
Q 2666 3584 2933 3390
Q 3200 3197 3328 2828
z
" transform="scale(0.015625)"/>
     </defs>
     <use xlink:href="#DejaVuSans-20"/>
     <use xlink:href="#DejaVuSans-4c" x="31.787109"/>
     <use xlink:href="#DejaVuSans-69" x="87.5"/>
     <use xlink:href="#DejaVuSans-6e" x="115.283203"/>
     <use xlink:href="#DejaVuSans-65" x="178.662109"/>
     <use xlink:href="#DejaVuSans-61" x="240.185547"/>
     <use xlink:href="#DejaVuSans-72" x="301.464844"/>
     <use xlink:href="#DejaVuSans-20" x="342.578125"/>
     <use xlink:href="#DejaVuSans-6d" x="374.365234"/>
     <use xlink:href="#DejaVuSans-65" x="471.777344"/>
     <use xlink:href="#DejaVuSans-61" x="533.300781"/>
     <use xlink:href="#DejaVuSans-6e" x="594.580078"/>
    </g>
    <!--  colored by group -->
    <g transform="translate(300.120703 81.524594)scale(0.21 -0.21)">
     <defs>
      <path id="DejaVuSans-6c" d="M 603 4863
L 1178 4863
L 1178 0
L 603 0
L 603 4863
z
" transform="scale(0.015625)"/>
      <path id="DejaVuSans-64" d="M 2906 2969
L 2906 4863
L 3481 4863
L 3481 0
L 2906 0
L 2906 525
Q 2725 213 2448 61
Q 2172 -91 1784 -91
Q 1150 -91 751 415
Q 353 922 353 1747
Q 353 2572 751 3078
Q 1150 3584 1784 3584
Q 2172 3584 2448 3432
Q 2725 3281 2906 2969
z
M 947 1747
Q 947 1113 1208 752
Q 1469 391 1925 391
Q 2381 391 2643 752
Q 2906 1113 2906 1747
Q 2906 2381 2643 2742
Q 2381 3103 1925 3103
Q 1469 3103 1208 2742
Q 947 2381 947 1747
z
" transform="scale(0.015625)"/>
      <path id="DejaVuSans-62" d="M 3116 1747
Q 3116 2381 2855 2742
Q 2594 3103 2138 3103
Q 1681 3103 1420 2742
Q 1159 2381 1159 1747
Q 1159 1113 1420 752
Q 1681 391 2138 391
Q 2594 391 2855 752
Q 3116 1113 3116 1747
z
M 1159 2969
Q 1341 3281 1617 3432
Q 1894 3584 2278 3584
Q 2916 3584 3314 3078
Q 3713 2572 3713 1747
Q 3713 922 3314 415
Q 2916 -91 2278 -91
Q 1894 -91 1617 61
Q 1341 213 1159 525
L 1159 0
L 581 0
L 581 4863
L 1159 4863
L 1159 2969
z
" transform="scale(0.015625)"/>
      <path id="DejaVuSans-79" d="M 2059 -325
Q 1816 -950 1584 -1140
Q 1353 -1331 966 -1331
L 506 -1331
L 506 -850
L 844 -850
Q 1081 -850 1212 -737
Q 1344 -625 1503 -206
L 1606 56
L 191 3500
L 800 3500
L 1894 763
L 2988 3500
L 3597 3500
L 2059 -325
z
" transform="scale(0.015625)"/>
      <path id="DejaVuSans-67" d="M 2906 1791
Q 2906 2416 2648 2759
Q 2391 3103 1925 3103
Q 1463 3103 1205 2759
Q 947 2416 947 1791
Q 947 1169 1205 825
Q 1463 481 1925 481
Q 2391 481 2648 825
Q 2906 1169 2906 1791
z
M 3481 434
Q 3481 -459 3084 -895
Q 2688 -1331 1869 -1331
Q 1566 -1331 1297 -1286
Q 1028 -1241 775 -1147
L 775 -588
Q 1028 -725 1275 -790
Q 1522 -856 1778 -856
Q 2344 -856 2625 -561
Q 2906 -266 2906 331
L 2906 616
Q 2728 306 2450 153
Q 2172 0 1784 0
Q 1141 0 747 490
Q 353 981 353 1791
Q 353 2603 747 3093
Q 1141 3584 1784 3584
Q 2172 3584 2450 3431
Q 2728 3278 2906 2969
L 2906 3500
L 3481 3500
L 3481 434
z
" transform="scale(0.015625)"/>
      <path id="DejaVuSans-75" d="M 544 1381
L 544 3500
L 1119 3500
L 1119 1403
Q 1119 906 1312 657
Q 1506 409 1894 409
Q 2359 409 2629 706
Q 2900 1003 2900 1516
L 2900 3500
L 3475 3500
L 3475 0
L 2900 0
L 2900 538
Q 2691 219 2414 64
Q 2138 -91 1772 -91
Q 1169 -91 856 284
Q 544 659 544 1381
z
M 1991 3584
L 1991 3584
z
" transform="scale(0.015625)"/>
      <path id="DejaVuSans-70" d="M 1159 525
L 1159 -1331
L 581 -1331
L 581 3500
L 1159 3500
L 1159 2969
Q 1341 3281 1617 3432
Q 1894 3584 2278 3584
Q 2916 3584 3314 3078
Q 3713 2572 3713 1747
Q 3713 922 3314 415
Q 2916 -91 2278 -91
Q 1894 -91 1617 61
Q 1341 213 1159 525
z
M 3116 1747
Q 3116 2381 2855 2742
Q 2594 3103 2138 3103
Q 1681 3103 1420 2742
Q 1159 2381 1159 1747
Q 1159 1113 1420 752
Q 1681 391 2138 391
Q 2594 391 2855 752
Q 3116 1113 3116 1747
z
" transform="scale(0.015625)"/>
     </defs>
     <use xlink:href="#DejaVuSans-20"/>
     <use xlink:href="#DejaVuSans-63" x="31.787109"/>
     <use xlink:href="#DejaVuSans-6f" x="86.767578"/>
     <use xlink:href="#DejaVuSans-6c" x="147.949219"/>
     <use xlink:href="#DejaVuSans-6f" x="175.732422"/>
     <use xlink:href="#DejaVuSans-72" x="236.914062"/>
     <use xlink:href="#DejaVuSans-65" x="275.777344"/>
     <use xlink:href="#DejaVuSans-64" x="337.300781"/>
     <use xlink:href="#DejaVuSans-20" x="400.777344"/>
     <use xlink:href="#DejaVuSans-62" x="432.564453"/>
     <use xlink:href="#DejaVuSans-79" x="496.041016"/>
     <use xlink:href="#DejaVuSans-20" x="555.220703"/>
     <use xlink:href="#DejaVuSans-67" x="587.007812"/>
     <use xlink:href="#DejaVuSans-72" x="650.484375"/>
     <use xlink:href="#DejaVuSans-6f" x="689.347656"/>
     <use xlink:href="#DejaVuSans-75" x="750.529297"/>
     <use xlink:href="#DejaVuSans-70" x="813.908203"/>
    </g>
    <!--   -->
    <g transform="translate(388.912969 105.04)scale(0.21 -0.21)">
     <use xlink:href="#DejaVuSans-20"/>
    </g>
   </g>
   <g id="legend_1">
    <g id="patch_37">
     <path d="M 489.494687 184.666875
L 690.76 184.666875
Q 693.56 184.666875 693.56 181.866875
L 693.56 120.84
Q 693.56 118.04 690.76 118.04
L 489.494687 118.04
Q 486.694687 118.04 486.694687 120.84
L 486.694687 181.866875
Q 486.694687 184.666875 489.494687 184.666875
z
" style="fill: #ffffff; opacity: 0.8; stroke: #cccccc; stroke-linejoin: miter"/>
    </g>
    <g id="patch_38">
     <path d="M 492.294687 134.277812
L 520.294687 134.277812
L 520.294687 124.477812
L 492.294687 124.477812
z
" style="fill: #1f77b4; opacity: 0.2"/>
    </g>
    <g id="text_15">
     <!-- control -->
     <g transform="translate(531.494687 134.277812)scale(0.14 -0.14)">
      <use xlink:href="#DejaVuSans-63"/>
      <use xlink:href="#DejaVuSans-6f" x="54.980469"/>
      <use xlink:href="#DejaVuSans-6e" x="116.162109"/>
      <use xlink:href="#DejaVuSans-74" x="179.541016"/>
      <use xlink:href="#DejaVuSans-72" x="218.75"/>
      <use xlink:href="#DejaVuSans-6f" x="257.613281"/>
      <use xlink:href="#DejaVuSans-6c" x="318.794922"/>
     </g>
    </g>
    <g id="patch_39">
     <path d="M 492.294687 154.827187
L 520.294687 154.827187
L 520.294687 145.027187
L 492.294687 145.027187
z
" style="fill: #ff7f0e; opacity: 0.2"/>
    </g>
    <g id="text_16">
     <!-- septin_knockdown -->
     <g transform="translate(531.494687 154.827187)scale(0.14 -0.14)">
      <defs>
       <path id="DejaVuSans-5f" d="M 3263 -1063
L 3263 -1509
L -63 -1509
L -63 -1063
L 3263 -1063
z
" transform="scale(0.015625)"/>
       <path id="DejaVuSans-6b" d="M 581 4863
L 1159 4863
L 1159 1991
L 2875 3500
L 3609 3500
L 1753 1863
L 3688 0
L 2938 0
L 1159 1709
L 1159 0
L 581 0
L 581 4863
z
" transform="scale(0.015625)"/>
       <path id="DejaVuSans-77" d="M 269 3500
L 844 3500
L 1563 769
L 2278 3500
L 2956 3500
L 3675 769
L 4391 3500
L 4966 3500
L 4050 0
L 3372 0
L 2619 2869
L 1863 0
L 1184 0
L 269 3500
z
" transform="scale(0.015625)"/>
      </defs>
      <use xlink:href="#DejaVuSans-73"/>
      <use xlink:href="#DejaVuSans-65" x="52.099609"/>
      <use xlink:href="#DejaVuSans-70" x="113.623047"/>
      <use xlink:href="#DejaVuSans-74" x="177.099609"/>
      <use xlink:href="#DejaVuSans-69" x="216.308594"/>
      <use xlink:href="#DejaVuSans-6e" x="244.091797"/>
      <use xlink:href="#DejaVuSans-5f" x="307.470703"/>
      <use xlink:href="#DejaVuSans-6b" x="357.470703"/>
      <use xlink:href="#DejaVuSans-6e" x="415.380859"/>
      <use xlink:href="#DejaVuSans-6f" x="478.759766"/>
      <use xlink:href="#DejaVuSans-63" x="539.941406"/>
      <use xlink:href="#DejaVuSans-6b" x="594.921875"/>
      <use xlink:href="#DejaVuSans-64" x="652.832031"/>
      <use xlink:href="#DejaVuSans-6f" x="716.308594"/>
      <use xlink:href="#DejaVuSans-77" x="777.490234"/>
      <use xlink:href="#DejaVuSans-6e" x="859.277344"/>
     </g>
    </g>
    <g id="patch_40">
     <path d="M 492.294687 175.765937
L 520.294687 175.765937
L 520.294687 165.965937
L 492.294687 165.965937
z
" style="fill: #2ca02c; opacity: 0.2"/>
    </g>
    <g id="text_17">
     <!-- septin_overexpression -->
     <g transform="translate(531.494687 175.765937)scale(0.14 -0.14)">
      <defs>
       <path id="DejaVuSans-76" d="M 191 3500
L 800 3500
L 1894 563
L 2988 3500
L 3597 3500
L 2284 0
L 1503 0
L 191 3500
z
" transform="scale(0.015625)"/>
       <path id="DejaVuSans-78" d="M 3513 3500
L 2247 1797
L 3578 0
L 2900 0
L 1881 1375
L 863 0
L 184 0
L 1544 1831
L 300 3500
L 978 3500
L 1906 2253
L 2834 3500
L 3513 3500
z
" transform="scale(0.015625)"/>
      </defs>
      <use xlink:href="#DejaVuSans-73"/>
      <use xlink:href="#DejaVuSans-65" x="52.099609"/>
      <use xlink:href="#DejaVuSans-70" x="113.623047"/>
      <use xlink:href="#DejaVuSans-74" x="177.099609"/>
      <use xlink:href="#DejaVuSans-69" x="216.308594"/>
      <use xlink:href="#DejaVuSans-6e" x="244.091797"/>
      <use xlink:href="#DejaVuSans-5f" x="307.470703"/>
      <use xlink:href="#DejaVuSans-6f" x="357.470703"/>
      <use xlink:href="#DejaVuSans-76" x="418.652344"/>
      <use xlink:href="#DejaVuSans-65" x="477.832031"/>
      <use xlink:href="#DejaVuSans-72" x="539.355469"/>
      <use xlink:href="#DejaVuSans-65" x="578.21875"/>
      <use xlink:href="#DejaVuSans-78" x="637.992188"/>
      <use xlink:href="#DejaVuSans-70" x="697.171875"/>
      <use xlink:href="#DejaVuSans-72" x="760.648438"/>
      <use xlink:href="#DejaVuSans-65" x="799.511719"/>
      <use xlink:href="#DejaVuSans-73" x="861.035156"/>
      <use xlink:href="#DejaVuSans-73" x="913.134766"/>
      <use xlink:href="#DejaVuSans-69" x="965.234375"/>
      <use xlink:href="#DejaVuSans-6f" x="993.017578"/>
      <use xlink:href="#DejaVuSans-6e" x="1054.199219"/>
     </g>
    </g>
   </g>
  </g>
 </g>
 <defs>
  <clipPath id="pc7be774b21">
   <rect x="83.94" y="111.04" width="616.62" height="351.52"/>
  </clipPath>
 </defs>
</svg>
